<mxfile host="app.diagrams.net" agent="Mozilla/5.0 (Windows NT 10.0; Win64; x64) AppleWebKit/537.36 (KHTML, like Gecko) Chrome/135.0.0.0 Safari/537.36" version="26.2.9">
  <diagram name="Page-1" id="5f0bae14-7c28-e335-631c-24af17079c00">
    <mxGraphModel dx="629" dy="355" grid="1" gridSize="10" guides="1" tooltips="1" connect="1" arrows="1" fold="1" page="1" pageScale="1" pageWidth="1100" pageHeight="850" background="none" math="0" shadow="0">
      <root>
        <mxCell id="0" />
        <mxCell id="1" parent="0" />
        <mxCell id="Vp3CijbbaJ5T1hP7bo3P-24" style="edgeStyle=orthogonalEdgeStyle;rounded=0;orthogonalLoop=1;jettySize=auto;html=1;entryX=0;entryY=0.5;entryDx=0;entryDy=0;" edge="1" parent="1" source="Vp3CijbbaJ5T1hP7bo3P-17" target="Vp3CijbbaJ5T1hP7bo3P-20">
          <mxGeometry relative="1" as="geometry" />
        </mxCell>
        <mxCell id="Vp3CijbbaJ5T1hP7bo3P-17" value="" style="image;html=1;image=img/lib/clip_art/computers/Laptop_128x128.png" vertex="1" parent="1">
          <mxGeometry x="100" y="350" width="80" height="80" as="geometry" />
        </mxCell>
        <mxCell id="Vp3CijbbaJ5T1hP7bo3P-51" style="edgeStyle=orthogonalEdgeStyle;rounded=0;orthogonalLoop=1;jettySize=auto;html=1;entryX=0.5;entryY=1;entryDx=0;entryDy=0;" edge="1" parent="1" source="Vp3CijbbaJ5T1hP7bo3P-18" target="Vp3CijbbaJ5T1hP7bo3P-20">
          <mxGeometry relative="1" as="geometry" />
        </mxCell>
        <mxCell id="Vp3CijbbaJ5T1hP7bo3P-18" value="" style="image;points=[];aspect=fixed;html=1;align=center;shadow=0;dashed=0;image=img/lib/allied_telesis/computer_and_terminals/Personal_Computer_Wireless.svg;" vertex="1" parent="1">
          <mxGeometry x="117" y="490" width="63" height="64.2" as="geometry" />
        </mxCell>
        <mxCell id="Vp3CijbbaJ5T1hP7bo3P-48" style="edgeStyle=orthogonalEdgeStyle;rounded=0;orthogonalLoop=1;jettySize=auto;html=1;entryX=0.5;entryY=0;entryDx=0;entryDy=0;" edge="1" parent="1" source="Vp3CijbbaJ5T1hP7bo3P-19" target="Vp3CijbbaJ5T1hP7bo3P-20">
          <mxGeometry relative="1" as="geometry" />
        </mxCell>
        <mxCell id="Vp3CijbbaJ5T1hP7bo3P-19" value="" style="image;html=1;image=img/lib/clip_art/telecommunication/iPhone_128x128.png" vertex="1" parent="1">
          <mxGeometry x="100" y="200" width="80" height="80" as="geometry" />
        </mxCell>
        <mxCell id="Vp3CijbbaJ5T1hP7bo3P-26" style="edgeStyle=orthogonalEdgeStyle;rounded=0;orthogonalLoop=1;jettySize=auto;html=1;" edge="1" parent="1" source="Vp3CijbbaJ5T1hP7bo3P-20" target="Vp3CijbbaJ5T1hP7bo3P-21">
          <mxGeometry relative="1" as="geometry">
            <Array as="points">
              <mxPoint x="450" y="370" />
              <mxPoint x="450" y="370" />
            </Array>
          </mxGeometry>
        </mxCell>
        <mxCell id="Vp3CijbbaJ5T1hP7bo3P-43" style="edgeStyle=orthogonalEdgeStyle;rounded=0;orthogonalLoop=1;jettySize=auto;html=1;" edge="1" parent="1" source="Vp3CijbbaJ5T1hP7bo3P-20">
          <mxGeometry relative="1" as="geometry">
            <mxPoint x="180" y="390" as="targetPoint" />
          </mxGeometry>
        </mxCell>
        <mxCell id="Vp3CijbbaJ5T1hP7bo3P-47" style="edgeStyle=orthogonalEdgeStyle;rounded=0;orthogonalLoop=1;jettySize=auto;html=1;exitX=0.5;exitY=0;exitDx=0;exitDy=0;entryX=1;entryY=0.5;entryDx=0;entryDy=0;" edge="1" parent="1" source="Vp3CijbbaJ5T1hP7bo3P-20" target="Vp3CijbbaJ5T1hP7bo3P-19">
          <mxGeometry relative="1" as="geometry" />
        </mxCell>
        <mxCell id="Vp3CijbbaJ5T1hP7bo3P-20" value="" style="image;html=1;image=img/lib/clip_art/networking/Cloud_Server_128x128.png" vertex="1" parent="1">
          <mxGeometry x="290" y="350" width="80" height="80" as="geometry" />
        </mxCell>
        <mxCell id="Vp3CijbbaJ5T1hP7bo3P-27" style="edgeStyle=orthogonalEdgeStyle;rounded=0;orthogonalLoop=1;jettySize=auto;html=1;" edge="1" parent="1" source="Vp3CijbbaJ5T1hP7bo3P-21" target="Vp3CijbbaJ5T1hP7bo3P-22">
          <mxGeometry relative="1" as="geometry">
            <Array as="points">
              <mxPoint x="680" y="370" />
              <mxPoint x="680" y="370" />
            </Array>
          </mxGeometry>
        </mxCell>
        <mxCell id="Vp3CijbbaJ5T1hP7bo3P-32" style="edgeStyle=orthogonalEdgeStyle;rounded=0;orthogonalLoop=1;jettySize=auto;html=1;entryX=1;entryY=0.75;entryDx=0;entryDy=0;exitX=0;exitY=0.75;exitDx=0;exitDy=0;" edge="1" parent="1" source="Vp3CijbbaJ5T1hP7bo3P-21" target="Vp3CijbbaJ5T1hP7bo3P-20">
          <mxGeometry relative="1" as="geometry">
            <mxPoint x="380" y="410" as="targetPoint" />
            <Array as="points" />
          </mxGeometry>
        </mxCell>
        <mxCell id="Vp3CijbbaJ5T1hP7bo3P-21" value="" style="image;html=1;image=img/lib/clip_art/computers/Server_Rack_128x128.png" vertex="1" parent="1">
          <mxGeometry x="520" y="350" width="80" height="80" as="geometry" />
        </mxCell>
        <mxCell id="Vp3CijbbaJ5T1hP7bo3P-29" style="edgeStyle=orthogonalEdgeStyle;rounded=0;orthogonalLoop=1;jettySize=auto;html=1;" edge="1" parent="1" source="Vp3CijbbaJ5T1hP7bo3P-22" target="Vp3CijbbaJ5T1hP7bo3P-21">
          <mxGeometry relative="1" as="geometry">
            <Array as="points">
              <mxPoint x="670" y="410" />
              <mxPoint x="670" y="410" />
            </Array>
          </mxGeometry>
        </mxCell>
        <mxCell id="Vp3CijbbaJ5T1hP7bo3P-22" value="" style="image;html=1;image=img/lib/clip_art/computers/Database_128x128.png" vertex="1" parent="1">
          <mxGeometry x="740" y="350" width="80" height="80" as="geometry" />
        </mxCell>
        <mxCell id="Vp3CijbbaJ5T1hP7bo3P-33" value="Data" style="rounded=1;whiteSpace=wrap;html=1;" vertex="1" parent="1">
          <mxGeometry x="640" y="415" width="60" height="20" as="geometry" />
        </mxCell>
        <mxCell id="Vp3CijbbaJ5T1hP7bo3P-34" value="Update" style="rounded=1;whiteSpace=wrap;html=1;" vertex="1" parent="1">
          <mxGeometry x="640" y="340" width="60" height="20" as="geometry" />
        </mxCell>
        <mxCell id="Vp3CijbbaJ5T1hP7bo3P-35" value="Cerere inainjtat" style="rounded=1;whiteSpace=wrap;html=1;" vertex="1" parent="1">
          <mxGeometry x="400" y="340" width="90" height="20" as="geometry" />
        </mxCell>
        <mxCell id="Vp3CijbbaJ5T1hP7bo3P-36" value="Raspuns" style="rounded=1;whiteSpace=wrap;html=1;" vertex="1" parent="1">
          <mxGeometry x="410" y="425" width="60" height="20" as="geometry" />
        </mxCell>
        <mxCell id="Vp3CijbbaJ5T1hP7bo3P-37" value="Server" style="rounded=1;whiteSpace=wrap;html=1;" vertex="1" parent="1">
          <mxGeometry x="530" y="435" width="60" height="20" as="geometry" />
        </mxCell>
        <mxCell id="Vp3CijbbaJ5T1hP7bo3P-38" value="DataBase" style="rounded=1;whiteSpace=wrap;html=1;" vertex="1" parent="1">
          <mxGeometry x="750" y="435" width="60" height="20" as="geometry" />
        </mxCell>
        <mxCell id="Vp3CijbbaJ5T1hP7bo3P-39" value="Client 1" style="rounded=1;whiteSpace=wrap;html=1;" vertex="1" parent="1">
          <mxGeometry x="100" y="290" width="90" height="20" as="geometry" />
        </mxCell>
        <mxCell id="Vp3CijbbaJ5T1hP7bo3P-40" value="Client 2" style="rounded=1;whiteSpace=wrap;html=1;" vertex="1" parent="1">
          <mxGeometry x="95" y="430" width="90" height="20" as="geometry" />
        </mxCell>
        <mxCell id="Vp3CijbbaJ5T1hP7bo3P-41" value="Client 3" style="rounded=1;whiteSpace=wrap;html=1;" vertex="1" parent="1">
          <mxGeometry x="103.5" y="570" width="90" height="20" as="geometry" />
        </mxCell>
        <mxCell id="Vp3CijbbaJ5T1hP7bo3P-50" style="edgeStyle=orthogonalEdgeStyle;rounded=0;orthogonalLoop=1;jettySize=auto;html=1;exitX=0.5;exitY=1;exitDx=0;exitDy=0;" edge="1" parent="1" source="Vp3CijbbaJ5T1hP7bo3P-20">
          <mxGeometry relative="1" as="geometry">
            <mxPoint x="180" y="522" as="targetPoint" />
            <Array as="points">
              <mxPoint x="330" y="522" />
              <mxPoint x="180" y="522" />
            </Array>
          </mxGeometry>
        </mxCell>
        <mxCell id="Vp3CijbbaJ5T1hP7bo3P-52" value="Cerere/raspuns" style="rounded=1;whiteSpace=wrap;html=1;" vertex="1" parent="1">
          <mxGeometry x="193.5" y="360" width="90" height="20" as="geometry" />
        </mxCell>
        <mxCell id="Vp3CijbbaJ5T1hP7bo3P-54" value="Cerere/raspuns" style="rounded=1;whiteSpace=wrap;html=1;" vertex="1" parent="1">
          <mxGeometry x="193.5" y="210" width="90" height="20" as="geometry" />
        </mxCell>
        <mxCell id="Vp3CijbbaJ5T1hP7bo3P-55" value="Cerere/raspuns" style="rounded=1;whiteSpace=wrap;html=1;" vertex="1" parent="1">
          <mxGeometry x="193.5" y="490" width="90" height="20" as="geometry" />
        </mxCell>
        <mxCell id="Vp3CijbbaJ5T1hP7bo3P-56" value="Internet" style="rounded=1;whiteSpace=wrap;html=1;" vertex="1" parent="1">
          <mxGeometry x="285" y="415" width="90" height="20" as="geometry" />
        </mxCell>
      </root>
    </mxGraphModel>
  </diagram>
</mxfile>
